<svg width="40" height="30" viewBox="0 0 40 30" fill="none" xmlns="http://www.w3.org/2000/svg">
<g id="&#240;&#159;&#166;&#134; icon &#34;eye&#34;">
<path id="Vector" d="M20.15 0C7.5 0 0 15 0 15C0 15 7.5 30 20.15 30C32.5 30 40 15 40 15C40 15 32.5 0 20.15 0ZM20 5C25.55 5 30 9.5 30 15C30 20.55 25.55 25 20 25C14.5 25 10 20.55 10 15C10 9.5 14.5 5 20 5ZM20 10C17.25 10 15 12.25 15 15C15 17.75 17.25 20 20 20C22.75 20 25 17.75 25 15C25 14.5 24.8 14.05 24.7 13.6C24.3 14.4 23.5 15 22.5 15C21.1 15 20 13.9 20 12.5C20 11.5 20.6 10.7 21.4 10.3C20.95 10.15 20.5 10 20 10Z" fill="#D9D9D9"/>
</g>
</svg>
